<svg width="38" height="41" viewBox="0 0 38 41" fill="none" xmlns="http://www.w3.org/2000/svg">
<path d="M13.1643 37.5691H13.1369C10.5418 37.5683 8.00497 36.7991 5.84637 35.3585C3.68777 33.9179 2.00405 31.8704 1.0075 29.4742C0.0109551 27.078 -0.253789 24.4404 0.24665 21.894C0.747089 19.3475 1.9903 17.0062 3.81953 15.1654C3.10388 13.7169 2.80272 12.0987 2.94933 10.4897C3.09595 8.88077 3.68463 7.34369 4.6503 6.04841C5.61598 4.75313 6.92102 3.75012 8.42117 3.15025C9.92131 2.55039 11.5581 2.37704 13.1506 2.64937C13.1878 2.25002 13.3069 1.86262 13.5004 1.51131C13.6939 1.16001 13.9577 0.852329 14.2754 0.607456C14.593 0.362587 14.9577 0.185772 15.3467 0.0880394C15.7357 -0.00969315 16.1406 -0.0262527 16.5363 0.0393982C24.4757 1.35959 29.5025 4.62206 31.6166 9.82679H33.5787C34.7404 9.82679 35.8546 10.2883 36.6761 11.1098C37.4976 11.9312 37.9591 13.0454 37.9591 14.2072V25.8881C37.9591 27.0499 37.4976 28.1641 36.6761 28.9855C35.8546 29.807 34.7404 30.2685 33.5787 30.2685H31.6166C29.5025 35.4702 24.4757 38.7327 16.5363 40.0559C16.1509 40.1199 15.7566 40.1059 15.3767 40.0148C14.9968 39.9237 14.639 39.7572 14.3246 39.5254C14.0102 39.2935 13.7455 39.0009 13.5462 38.6649C13.3469 38.3288 13.217 37.9562 13.1643 37.5691ZM13.1369 34.6489V31.7286C11.2007 31.7286 9.34376 30.9595 7.97463 29.5903C6.6055 28.2212 5.83633 26.3643 5.83633 24.428C5.83633 22.4918 6.6055 20.6348 7.97463 19.2657C9.34376 17.8966 11.2007 17.1274 13.1369 17.1274V14.2072C10.4262 14.2072 7.82649 15.284 5.9097 17.2008C3.99292 19.1176 2.91608 21.7173 2.91608 24.428C2.91608 27.1388 3.99292 29.7385 5.9097 31.6553C7.82649 33.5721 10.4262 34.6489 13.1369 34.6489ZM13.1369 28.8084V20.0477C11.9752 20.0477 10.861 20.5092 10.0396 21.3306C9.21808 22.1521 8.75658 23.2663 8.75658 24.428C8.75658 25.5898 9.21808 26.7039 10.0396 27.5254C10.861 28.3469 11.9752 28.8084 13.1369 28.8084ZM13.1369 8.75907L13.1369 5.62893C12.2738 5.40886 11.3719 5.38863 10.4998 5.5698C9.62769 5.75096 8.80843 6.12874 8.10439 6.67437C7.40035 7.22001 6.8301 7.9191 6.43706 8.71841C6.04402 9.51773 5.83856 10.3962 5.83633 11.2869C5.83513 11.9637 5.95249 12.6355 6.18311 13.2718C7.02019 12.7519 7.91237 12.3264 8.84327 12.0033C8.70458 11.4469 8.73251 10.8619 8.9236 10.3213C9.11469 9.78059 9.46051 9.30801 9.91804 8.96231C10.3756 8.61661 10.9246 8.41303 11.4969 8.3769C12.0693 8.34076 12.6396 8.47366 13.1369 8.75907ZM32.1186 12.747V27.3483H33.5787C33.9659 27.3483 34.3373 27.1944 34.6111 26.9206C34.885 26.6468 35.0388 26.2754 35.0388 25.8881V14.2072C35.0388 13.8199 34.885 13.4485 34.6111 13.1747C34.3373 12.9009 33.9659 12.747 33.5787 12.747H32.1186ZM29.1983 28.3749V11.7204C27.7108 7.08906 23.4947 4.15512 16.0572 2.91402V37.1813C23.4947 35.9402 27.7108 33.0063 29.1983 28.3749Z" fill="white"/>
</svg>
